<?xml version="1.0" encoding="utf-8"?>
<!-- Generator: Adobe Illustrator 15.0.0, SVG Export Plug-In . SVG Version: 6.00 Build 0)  -->
<!DOCTYPE svg PUBLIC "-//W3C//DTD SVG 1.1//EN" "http://www.w3.org/Graphics/SVG/1.1/DTD/svg11.dtd">
<svg version="1.1" id="Layer_1" xmlns="http://www.w3.org/2000/svg" xmlns:xlink="http://www.w3.org/1999/xlink" x="0px" y="0px"
	 width="71.448px" height="99.097px" viewBox="0 0 71.448 99.097" enable-background="new 0 0 71.448 99.097" xml:space="preserve">
<g>
	<defs>
		<rect id="SVGID_1_" width="71.448" height="99.097"/>
	</defs>
	<clipPath id="SVGID_2_">
		<use xlink:href="#SVGID_1_"  overflow="visible"/>
	</clipPath>
	<path clip-path="url(#SVGID_2_)" fill="#020000" d="M0.224,84.624c0.241-0.323,0.806-3.143,0.886-3.547
		c0.081-0.402,0.482-1.53,1.369-1.852c0.886-0.322,2.902,0.401,4.352,0.563c1.451,0.161,5.964,1.288,6.607,1.288
		c0.647,0,3.708,0.806,4.353,1.371c0.643,0.563,4.056,1.074,4.056,1.074c1.234,0.269,2.631-1.664,4.513-3.761
		c1.878-2.095,4.672-3.17,5.102-3.33c0.431-0.161,5.212-0.968,5.212-0.968c0-0.161,7.143-0.161,7.143-0.161s6.02,0.483,6.18,0.698
		c0.161,0.215,4.299,0.108,4.514,0.108s4.458-0.538,4.458-0.699s5.05-0.591,5.427-0.752c0.376-0.161,3.76-0.053,4.082,0.108
		c0.322,0.16,1.664,0.429,2.525,2.577c0.857,2.149,0.215,5.319,0.215,5.319s-0.08,0.994-0.402,2.041
		c-0.323,1.048-1.694,5.319-2.499,6.366c-0.806,1.048-1.452,2.579-3.788,4.109c-2.338,1.531-3.707,0.483-3.707,0.483
		c-0.562-0.16-4.914-2.821-5.64-6.93c-0.726-4.109-1.29-4.19-1.612-4.271s-1.209,0.403-1.853,1.29
		c-0.646,0.886-2.74,5.157-3.387,5.641c-0.644,0.483-2.899,3.707-6.605,5.479c-3.708,1.773-8.059,2.901-11.121,1.773
		c-3.061-1.129-5.56-3.627-6.125-5.722c-0.563-2.096-1.531-4.916-4.27-5.721c-2.74-0.807-6.366-1.854-8.462-2.741
		c-2.095-0.886-5.156-2.094-6.446-2.738c-1.289-0.646-2.417-0.888-2.821-0.484c-0.402,0.403,0.485,8.461-1.208,6.606
		C-0.422,85.994-0.019,84.946,0.224,84.624"/>
	<path clip-path="url(#SVGID_2_)" fill="#020000" d="M68.04,37.925c-0.107-1.179-0.322-6.962-0.858-8.355
		c-0.534-1.391-1.926-5.247-2.462-6.103c-0.537-0.858-2.035-3.857-2.785-4.605c-0.748-0.751-1.82-2.036-3.105-1.929
		c-1.286,0.108-1.822,0.856-3.106,1.392c-1.284,0.537-1.606,0.643-2.356,0.537c-0.748-0.109-0.534-0.43-0.856-1.502
		c-0.323-1.07-0.105-1.928-0.965-2.569c-0.855-0.644-1.391-2.999-2.14-4.712c-0.751-1.714-1.501-3.32-2.571-4.713
		c-1.073-1.392-2.034-3.105-3.64-3.964c-1.607-0.855-3.108-1.499-4.82-1.389c-1.715,0.104-3.107,0-4.928,0.749
		c-1.82,0.748-2.676,1.499-4.177,2.891c-1.498,1.392-1.822,2.033-2.785,3.319c-0.962,1.286-1.284,2.57-1.926,3.962
		c-0.643,1.393-0.643,2.036-1.393,3.642c-0.751,1.606-1.392,2.465-1.715,3.535c-0.319,1.071-0.642,1.713-1.712,1.928
		c-1.073,0.215-2.465,0-3.75,0.107c-1.283,0.108-2.57,0.323-3.749,0.643c-1.178,0.32-2.249,0.535-2.89,1.499
		c-0.642,0.965-1.179,0.965-2.143,1.714c-0.965,0.749-1.07,1.286-1.499,1.714C5.278,26.143,4.635,27.429,5.278,27
		c0.644-0.428,1.072-0.32,2.356-0.75c1.286-0.428,0,0-0.214,0.965c-0.214,0.964-0.536,1.606-0.856,3.426
		c-0.323,1.822-0.857,3.857-0.75,6.642C5.922,40.065,5.6,40.496,5.6,42.637c0,2.141-0.106,3.107,0.214,6.425
		c0.322,3.321,0.108,3.75,0.108,5.142c0,1.392,0.751,1.929,1.82,2.678c1.071,0.749,1.821,1.606,3.534,2.892s1.927,1.07,3.429,2.57
		c1.497,1.499,0.533,1.284,2.248,1.821c1.712,0.535,5.461-0.537,8.46-1.286c3-0.75,5.89-0.857,9.103-1.606
		c3.212-0.75,8.678-0.966,11.676-1.715c2.998-0.75,6.531-1.177,9.853-1.605c3.318-0.429,6.64-0.321,8.355-0.644
		c1.712-0.319,1.925,0.536,2.89-1.07c0.964-1.606,0.964-3.748,1.071-6.961C68.469,46.063,68.527,43.267,68.04,37.925 M42.548,11.898
		c-0.428,1.071-0.642,1.822-1.283,3.213c-0.643,1.393-0.965,2.034-1.069,2.999c-0.109,0.964,0.427,1.607-0.75,1.607
		c-1.18,0-2.464-0.108-3.537-0.108c-1.069,0-1.82,0.859-2.354,0c-0.536-0.857,0-0.535-0.428-1.821
		c-0.43-1.284-0.43-1.284-1.072-1.819c-0.643-0.538-0.323-0.858-0.857-1.927c-0.536-1.073-0.856-0.966-0.75-1.502
		c0.275-1.364,0.214-2.677,1.179-4.606c0.964-1.926,1.607-2.675,2.998-3.961c1.393-1.286,3.213-1.393,4.497-0.428
		c1.287,0.962,2.249,2.035,2.68,3.426C42.229,8.365,42.977,10.829,42.548,11.898 M46.512,14.576c0,0-0.214,0.107-0.642-0.963
		c-0.428-1.072-1.287-2.784-1.287-2.784c-0.319-1.822,0.536-1.072-0.319-2.999c-0.856-1.929,0.107-0.964-1.179-2.57
		c-1.284-1.607-0.642-1.393,0.428-0.428c1.07,0.962,1.393,1.606,2.037,2.568c0.643,0.965,1.07,1.714,1.284,2.785
		c0.214,1.073,0.322,1.073,0.322,2.572C47.156,14.255,46.512,14.576,46.512,14.576"/>
</g>
</svg>
