<?xml version="1.0" encoding="utf-8"?>
<!-- Generator: Adobe Illustrator 15.0.0, SVG Export Plug-In . SVG Version: 6.00 Build 0)  -->
<!DOCTYPE svg PUBLIC "-//W3C//DTD SVG 1.1//EN" "http://www.w3.org/Graphics/SVG/1.1/DTD/svg11.dtd">
<svg version="1.1" id="Layer_1" xmlns="http://www.w3.org/2000/svg" xmlns:xlink="http://www.w3.org/1999/xlink" x="0px" y="0px"
	 width="237.144px" height="193.711px" viewBox="0 0 237.144 193.711" enable-background="new 0 0 237.144 193.711"
	 xml:space="preserve">
<g>
	<defs>
		<rect id="SVGID_1_" width="237.144" height="193.711"/>
	</defs>
	<clipPath id="SVGID_2_">
		<use xlink:href="#SVGID_1_"  overflow="visible"/>
	</clipPath>
	<path clip-path="url(#SVGID_2_)" d="M103.244,27.95c0-2.059-1.109-5.386-1.109-5.386c-0.95,0.425,0.051,5.437,0.051,5.437
		L103.244,27.95z M105.513,48.651c0,0,1.375-3.802,0.741-6.393c0,0-0.425,0.951-1.324,1.166
		C104.93,43.424,105.62,47.384,105.513,48.651 M91.255,58.683c1.318-0.526-0.9-2.642-0.9-2.642
		C89.514,57.416,91.255,58.683,91.255,58.683 M91.89,58.474l6.919-4.436l-0.215-0.424l-7.813,2.376
		C92.256,57.573,91.89,58.474,91.89,58.474 M99.284,54.088c-0.215,0.741-4.226,3.06-4.226,3.06c-0.583,0.267-1.268,4.81-1.268,4.81
		c1.477,1.21,2.744,3.801,2.744,3.801c1.058,1.845,3.91,3.904,3.91,3.904c4.119-9.556,4.328-18.953,4.328-18.953
		C103.294,51.979,99.284,54.088,99.284,54.088 M96.749,53.403l1.953-0.158c0,0,2.166-0.373,6.228-3.593l-0.316-4.118
		c0,0-2.694,0.367-3.644-2.009C100.97,43.525,99.227,49.704,96.749,53.403 M90.306,84.979l-4.519,6.419
		c-3.003,4.353,3.967,18.527,3.967,18.527c1.502,2.699,2.852,8.086,2.852,8.086c0.101,1.038,0.525,2.515,0.963,3.846l-0.285,0.095
		c-0.571-1.743-1.16-2.915-1.16-2.915c-1.736-3.878-27.481-32.316-27.481-32.316l6.971-6.653l-0.634-1.343l-1.502-1.901
		l-4.753,1.185c-3.566,0.951-3.65-2.535-3.65-2.535c-1.736-4.593-1.736-9.979-1.736-9.979l-1.609,1.679l-0.266-0.254
		c0,0,5.437-6.127,9.872-7.92c0,0,3.909-0.317,2.959-4.543c0,0-1.426-7.763-2.75-8.396c0,0-2.376,0.532-4.644-4.119
		c0,0-3.486-8.288,0.158-10.03c0,0-1.109-0.108-1.109-1.477c0,0-1.216-29.521,19.694-30.415c0,0,13.997-1.109,19.167,13.199
		c0,0,3.961,7.078,4.544,17.159c0,0,0.634,0.742,1.426,2.433c0,0,2.641-2.325,2.426,3.903c0,0-0.259,1.901-0.893,2.009
		c0,0,0,4.86-0.901,4.86c0,0-0.423,4.695-1.742,6.653c0,0-1.951,14.257-4.644,19.852c0,0,1.742,1.268,2.534,2.852
		c0,0,0.45,0.678,1.54,1.306l-0.456,0.36l-1.35-0.481l2.617,5.31l-5.627-1.426l-0.557,2.769c0,0,3.485,3.567,7.685,4.917
		c0,0,1.902,0.393,1.186,2.611c0,0-6.02,18.299-7.205,25.104c0,0-2.452,10.854-5.62,13.863l-0.52,0.165
		c-0.425-1.375-0.766-2.363-0.824-2.521c-0.006-0.014-0.006-0.02-0.006-0.02l0.235-0.044c0.05,0.127,0.082,0.203,0.082,0.203
		c5.386-3.961,2.217-43.012,2.217-43.012C96.089,83.16,90.306,84.979,90.306,84.979 M88.639,85.377c0,0-7.287,1.027-9.105,0.235
		l4.751,11.247C84.285,96.859,83.569,90.522,88.639,85.377"/>
	<path clip-path="url(#SVGID_2_)" d="M96.56,137.375c0-1.292-1.135-2.339-2.535-2.339c-1.394,0-2.535,1.047-2.535,2.339
		c0,1.285,1.141,2.33,2.535,2.33C95.425,139.705,96.56,138.66,96.56,137.375 M57.672,67.236l1.742,9.188
		c0.318,3.96,2.928,3.485,2.928,3.485c3.333-0.634,7.053-1.109,7.053-1.109l-6.572,7.679c-1.115,1.116,0.317,2.066,0.317,2.066
		c3.485,3.244,25.498,29.3,25.498,29.3c4.201,4.435,5.703,9.587,5.703,9.587c-0.07-1.997-0.558-3.954-1.059-5.481l0.286-0.095
		c0.443,1.336,0.906,2.528,1.089,2.996l-0.234,0.045c0,0,0,0.006,0.006,0.02c1.103,3.402,0.47,9.011,0.47,9.011
		c1.4,1.608,1.907,2.806,1.964,3.688c0.12,1.762-1.572,2.255-1.572,2.255l0.558,12.99l1.66,0.234l-0.361-15.486l-0.032-1.387
		c0-2.301-1.078-6.217-1.863-8.783l0.52-0.165l0.71,1.508c0,0,5.145-7.526,6.412-14.421c0,0,5.469-20.112,7.844-25.263l0.476-2.136
		c0,0,0.234-1.115-0.951-1.749c0,0-8.788-3.719-8.788-5.303c0,0,2.851,0.551,5.702,1.818c0,0,2.218,0.951,0.951-1.66
		c0,0-3.485-4.594-3.485-5.462l0.456-0.36c0.652,0.38,1.533,0.734,2.68,0.911c0,0,9.562,2.535,11.461,10.189
		c0,0,0.16,0.793,1.37,2.909c0,0,1.324,1.742,1.482,3.802c0,0-0.107,1.159,1.268,2.636c0,0,1.052,1.425,1.209,4.701
		c0,0,0.742,13.624,2.694,14.891c0,0,0.95,0.267,0.95,2.959c0,0,2.643,18.534,6.92,20.961c0,0,4.91,2.167,8.712,0.476
		c0,0,15.208-6.863,19.593,1.476c0,0,4.802,1.743,8.021,1.269c0,0,2.692-0.159,4.176,0.898c0,0,2.002,0.634,6.387-0.475
		c0,0,9.556-0.209,17.477,7.445c0,0,3.01,2.376,4.491,2.376c0,0,5.646,0.634,3.695,2.643c0,0-0.158,1.16-0.792,1.369l3.535,0.95
		l2.376,0.057l4.226,1.686l2.802,0.107l4.327,1.534l3.695,0.101l4.017,2.06l0.209,1.958c0,0,4.17,0.102,4.91,2.535
		c0,0,1.534,4.378-5.176,5.012c0,0-2.693,4.594-2.478,8.136l-19.383,1.318l-82.215,9.295c0,0-48.05,9.131-57.663-3.066
		c0,0-9.605-9.714-10.714-13.465c0,0-0.9,0.583-1.426-0.051c0,0-2.059,3.593-4.86,0.741c0,0-2.167-4.176-3.536-5.069
		c0,0-3.168-3.01-4.017-8.396c0,0-5.911-1.482-7.655,0.576c0,0-0.899,1.584-2.959,1.218c0,0-14.041-7.18-21.645-8.028
		c0,0-11.938,2.591-13.148-6.863c0,0-1.166-8.446,3.802-13.306c0,0,1.369-1.635,1.109-3.593c0,0,0.577-4.753,4.328-6.547
		c0,0,3.852-3.009,5.81-8.819c0,0,5.437-12.673,7.547-14.466c0,0,9.821-18.325,14.947-24.288c0,0,1.635-1.483,1.584-2.75
		c0,0,0.159-2.06,4.753-2.636c0,0,6.654-0.951,8.078-2.434c0,0,2.954-2.376,5.387-2.268l0.266,0.254L57.672,67.236z
		 M106.039,153.836l-29.674,0.316c1.692,3.645,6.02,4.17,6.02,4.17c2.534,0,2.801,1.426,2.801,1.426
		c0.158,1.851-1.743,2.692-1.743,2.692l81.791-6.387c-1.318-1.742-3.276-1.533-3.276-1.533c-2.692,0.792-6.279-2.167-6.279-2.167
		c-1.691,1.692-2.75,1.692-2.75,1.692c-7.92,3.377-29.356,1.532-29.356,1.532c-5.913-0.899-5.386-1.85-5.386-1.85
		c-0.318-1.901-0.634-1.743-0.634-1.743c-3.168-1.951-2.852-7.444-2.852-7.444c-0.633-4.646-2.534-5.336-2.534-5.336
		c-1.001-1.742-0.424-3.853-0.424-3.853c-0.685,1.217-3.219,2.959-3.219,2.959c-1.319,1.16-0.476,1.901-0.476,1.901
		c2.693,3.853-0.95,7.129-0.95,7.129C105.829,149.818,106.039,153.836,106.039,153.836 M173.154,155.472l2.375-0.317l-2.326-0.159
		L173.154,155.472z M47.801,141.372c0,0-0.951-13.097-3.485-17.532c0,0-2.959-9.238-4.543-2.269c0,0-4.543,9.821-6.127,11.247
		c0,0-1.743,1.635-1.636,3.117c0,0,0.051,1.793-0.633,2.269c0,0,2.534-0.158,4.068,1.159c0,0,0.368,0.691,5.227,0.741
		C40.671,140.104,44.893,140.104,47.801,141.372"/>
</g>
</svg>
