<?xml version="1.0" encoding="utf-8"?>
<!-- Generator: Adobe Illustrator 15.0.0, SVG Export Plug-In . SVG Version: 6.00 Build 0)  -->
<!DOCTYPE svg PUBLIC "-//W3C//DTD SVG 1.1//EN" "http://www.w3.org/Graphics/SVG/1.1/DTD/svg11.dtd">
<svg version="1.1" id="Layer_1" xmlns="http://www.w3.org/2000/svg" xmlns:xlink="http://www.w3.org/1999/xlink" x="0px" y="0px"
	 width="66.497px" height="201.639px" viewBox="0 0 66.497 201.639" enable-background="new 0 0 66.497 201.639"
	 xml:space="preserve">
<g>
	<defs>
		<rect id="SVGID_1_" width="66.497" height="201.639"/>
	</defs>
	<clipPath id="SVGID_2_">
		<use xlink:href="#SVGID_1_"  overflow="visible"/>
	</clipPath>
	<path clip-path="url(#SVGID_2_)" d="M66.464,84.644c0-2.521-1.17-3.356-1.17-5.221c0-3.246,0.359-6.183,0.359-9.359
		c0-7.401-1.889-1.08-1.979-15.569c0-3.812-0.359-11.415-0.359-14.94c0-2.117-12.881-5.429-17.814-11.73
		c0.022,0.196,0.039,0.435,0.039,0.751c0,3.273-2.118,11.676-2.922,15.061c-0.889,3.74-3.043,6.486-4.994,14.463
		c-1.029,4.208-2.855,8.252-2.984,12.341c-0.01,0.345-0.023,0.675-0.038,0.996c-0.016-0.973-0.088-2.059-0.249-3.292
		c-1.452-11.157-3.329-17.104-3.214-28.352c0.025-2.507,0.173-10.963,0.746-12.168c0.559-1.173,0.918,3.099,2.238,4.821
		c0.167,0.218,0.9,1.241,1.664,2.525c1.106,1.862,1.723,4.42,2.756,4.133c0.626-0.175,3.17-3.961,3.502-4.477
		c2.674-4.171,2.592-5.287,2.651-6.155c0.023-0.337-0.199-1.712,0.179-1.658c-0.29-1.275,0.951-3.038,0.803-4.897
		c0-3.564,1.349-0.179,2.069-3.689c0.899-2.069,0.09-1.936,0.09-4.139c0.81-5.579,0.359-7.83-1.08-9.9
		C41.537-1.417,33.348-0.94,30.827,2.93c-4.589,5.309-2.16,6.221-2.16,11.698c0,2.431,0,4.32,1.351,6.3
		c0.54,0.72,0.672,0.057,1.174,1.512c0.398,0.981,0.696,2.529,0.986,3.528c0.34,1.178-0.432,1.875-1.244,2.77
		c-2.332,2.143-4.03,1.124-6.137,2.09c-1.306,0.597-4.027,1.727-6.996,2.177c-2.041,0.483-5.242-0.138-5.242,1.782
		c0,2.771-3.24,10.169-5.219,14.039c-1.26,2.88-3.15,5.939-4.951,10.888c-3.43,7.469-2.158,8.508-2.158,12.6
		c0,3.966,1.8,6.75,2.879,11.248c0.54,1.622,2.34,6.622,2.34,8.28c0,0.9-0.09,2.251,1.799,2.069c0.145-0.018,1.183-0.214,2.34-0.819
		c0.147,3.802,0.721,7.327,0.721,7.48c0.09,2.52,2.249,2.61,1.979,5.13c0.18,5.218,0.629,16.517,0.629,21.147
		c0.181,12.599,1.441,8.438,1.441,13.5c1.17,5.939,3.6,20.427,4.589,26.727c0,3.338,2.34,10.687,2.34,13.769
		c0.271,1.532,1.44-0.628,1.261,1.172c0,4.011-1.08,2.986-1.08,6.3c0,2.962,0.09,3.419,1.348,4.049c2.161,0.811,3.602,0.542,5.581,0
		c0.599-0.288,1.244-2.392,1.822-5.208c-0.346,3.495-1.601,10.297-1.553,11.687c0.451,3.062,4.486,2.789,7.56,2.789
		c1.201,0.036,4.319-2.067,5.221-3.869c0.486-0.972-1.273-4.635-1.441-8.188c-0.018-0.389,0.9-0.181,1.08-1.442
		c0-1.825,0.63-4.858,1.531-8.188c0-2.272,3.688-7.761,3.688-10.528c1.351-9.54,2.7-19.348,3.33-35.369
		c0-5.03,2.699-16.499,2.699-21.777c0-3.07,1.8,0.359,1.98-4.409c0-0.547,0.561-16.637,0.539-17.189
		c-0.019-0.513-0.624-5.538-0.989-10.079c-0.453-5.66-0.633-10.866,0-9.089c0.089,0.246-0.415,3.571-0.09,7.198
		c0.297,3.294,1.261,1.531,1.35,10.261c0.32,3.968,0.899,7.078,0.899,7.559c0.182,1.98,0.164,4.003,0.45,4.768
		c0.043,0.085,0.175,0.138,0.376,0.171c0.101,0.012-0.153,0.282-0.222,0.58c-0.476,1.248-0.22,3.579-0.203,3.642
		c0,0.391,0.121,3.593,0.121,3.856c0.125,0.711,1.777,1.717,2.167-0.287c-0.024-0.302-0.146-2.037,0-2.473
		c0.694-1.025,1.505-0.622,1.635,0.605c-0.023-0.024-0.089,0.806-0.222,1.595c-0.137,0.883-0.057,1.26-0.977,1.647
		c-0.745,0.366-0.912,0.644-2.17,0.542c-1.349,0.136-2.164,0.307-1.838,1.337c0.449,0.655,1.224,0.724,1.917,0.724
		c0.649-0.068,4.399-0.378,5.349-2.142c-0.009-0.46,0.541-1.101,1.195-1.744c0.34-0.687,0.622-1.547,0.542-3.115
		c-0.008-0.638-0.217-2.524-0.217-3.167c0.017-0.076-0.017-0.142,0.034-0.146c0.306,0.017,0.391-0.253,0.252-1.264
		c-0.148-1.069,0.628-5.13,0.988-7.38C65.655,91.663,66.695,86.596,66.464,84.644 M13.189,81.852
		c-0.362,1.091-0.702,1.609-1.026,1.9c-0.187-0.477-0.41-0.976-0.671-1.498c-0.312-0.481-1.543-7.421-1.902-10.031
		c0-2.069,0.178-3.689,0.989-4.768c1.26-1.441,1.548-3.779,1.621-3.781c0.463-1.16,0.969-2.668,1.479-3.854
		c0.675-1.571,1.351-2.578,1.94-1.455c1.124,2.148,1.594,11.649,1.71,11.968C17.959,73.214,15.259,76.993,13.189,81.852
		 M32.988,143.229c0.027,0.595-1.747,14.279-1.753,16.972c-0.002,1.827-0.047,4.077-0.115,6.485
		c-0.305-2.646-0.543-5.945-0.653-6.271c-0.76-2.518-1.053-2.261-1.17-4.047c0.046-0.388-0.188-11.621,0.033-13.853
		c0-2.522-1.161-1.259,0.597-8.017c0.261-0.979,2.161-19.348,2.611-18.358c0.719,0.448,0.403,14.177,0.719,15.568
		C33.759,133.907,32.973,142.701,32.988,143.229"/>
	<path clip-path="url(#SVGID_2_)" d="M31.243,37.792c0.007-0.006,1.389-1.854,2.709-2.788c0.164-0.115,0.364-0.148,0.573-0.15
		c0.794,0.039,1.306,0.295,1.317,0.297l0.055,0.027l0.542,0.763c-0.001,0-0.148-0.073-0.524-0.203
		c-0.379-0.131-0.849-0.262-1.209-0.26c-0.18-0.001-0.322,0.034-0.4,0.091c-1.326,0.908-2.965,2.994-2.966,2.997l-0.408,0.419
		l0.049-0.95L31.243,37.792z"/>
	<path clip-path="url(#SVGID_2_)" d="M43.196,38.817c-0.391-0.469-0.938-0.98-1.509-1.174c-0.085-0.029-0.197-0.045-0.327-0.045
		c-0.78-0.005-1.972,0.548-1.972,0.548l0.427-0.752c0.526-0.184,0.622-0.298,1.545-0.361c0.16,0,0.312,0.017,0.454,0.064
		c1.323,0.527,2.023,1.784,2.039,1.794l-0.108,0.654C43.742,39.544,43.59,39.284,43.196,38.817"/>
</g>
</svg>
