<?xml version="1.0" encoding="utf-8"?>
<!-- Generator: Adobe Illustrator 15.0.0, SVG Export Plug-In . SVG Version: 6.00 Build 0)  -->
<!DOCTYPE svg PUBLIC "-//W3C//DTD SVG 1.1//EN" "http://www.w3.org/Graphics/SVG/1.1/DTD/svg11.dtd">
<svg version="1.1" id="Layer_1" xmlns="http://www.w3.org/2000/svg" xmlns:xlink="http://www.w3.org/1999/xlink" x="0px" y="0px"
	 width="139.83px" height="281.84px" viewBox="0 0 139.83 281.84" enable-background="new 0 0 139.83 281.84" xml:space="preserve">
<g>
	<g>
		<defs>
			<rect id="SVGID_1_" width="139.83" height="281.84"/>
		</defs>
		<clipPath id="SVGID_2_">
			<use xlink:href="#SVGID_1_"  overflow="visible"/>
		</clipPath>
		<path clip-path="url(#SVGID_2_)" d="M124.146,2.547c0,0,9.452-4.668,12.754-1.365c3.304,3.302,0.684,14.348,0.684,16.853
			s-1.138,4.1-1.138,7.517s1.595,3.871,1.595,6.604c0,2.735-0.229,6.379-0.229,7.517c0,1.139-1.818,14.123-1.818,14.123
			s2.275,6.833,2.275,12.07c0,5.238-3.188,8.428-3.188,14.121c0,5.693,1.138,9.795-0.454,15.261
			c-1.594,5.466-4.102,6.15-4.102,11.616c0,5.466,1.141,5.238,1.141,11.844v11.842c0,4.1-0.912,15.716-0.912,18.677
			c0,2.962-5.01,6.149-5.01,10.021c0,3.873,2.049,6.379,2.049,12.983s5.24,16.399,9.795,24.144
			c4.554,7.744,1.138,20.043-1.139,33.709c-2.277,13.666-2.277,45.324-2.277,45.324S131.437,277,128.705,277
			c-2.734,0-7.288-0.684-7.288-0.684l-4.101-42.363c0,0-5.354-1.707-14.123,7.062c-8.77,8.771-20.042,28.698-22.774,37.124
			c-2.735,8.427-58.081,0.457-69.695-4.1c-11.617-4.556-10.705-8.883-10.705-8.883s-0.229-6.832,1.821-12.07
			s19.132-5.922,32.343-5.922c13.209,0,23.914-37.808,23.914-39.858c0-2.05,2.733-14.121,2.733-17.312
			c0-3.189-0.457-12.754-0.457-19.131c0-6.379,1.595-7.516-0.91-12.07c-2.505-4.557-1.594-8.201-1.594-14.578V131.69
			c0-3.189-2.506-8.202-1.14-15.944c1.367-7.744-0.229-8.656-0.229-13.667c0-5.009-1.594-5.694-0.454-10.931
			c1.139-5.24-0.684-18.223-5.012-35.989c-4.328-17.764-4.783-47.601-4.783-51.246c0-3.644,21.637-3.188,36.896-3.188
			C98.41,0.725,113.44,4.37,124.146,2.547"/>
	</g>
</g>
</svg>
