<?xml version="1.0" encoding="utf-8"?>
<!-- Generator: Adobe Illustrator 15.0.0, SVG Export Plug-In . SVG Version: 6.00 Build 0)  -->
<!DOCTYPE svg PUBLIC "-//W3C//DTD SVG 1.1//EN" "http://www.w3.org/Graphics/SVG/1.1/DTD/svg11.dtd">
<svg version="1.1" id="Layer_1" xmlns="http://www.w3.org/2000/svg" xmlns:xlink="http://www.w3.org/1999/xlink" x="0px" y="0px"
	 width="69.332px" height="186.638px" viewBox="0 0 69.332 186.638" enable-background="new 0 0 69.332 186.638"
	 xml:space="preserve">
<g>
	<defs>
		<rect id="SVGID_1_" width="69.332" height="186.638"/>
	</defs>
	<clipPath id="SVGID_2_">
		<use xlink:href="#SVGID_1_"  overflow="visible"/>
	</clipPath>
	<path clip-path="url(#SVGID_2_)" d="M63.082,163.879c-1.145-4.396-2.363-16.021-3.522-21.645
		c-1.157-5.796-2.823-8.849-4.203-13.442c-0.859-5.454-2.62-9.27-2.62-10.22c-0.052-0.651,0.573-0.897,0.557-1.588
		c-0.046-2.057-1.331-6.689-1.377-8.759c-0.035-1.832-0.74-11.164-0.912-12.905c0.005-0.169,0.047-0.354,0.115-0.556
		c2.327,1.057,8.223,0.134,8.53,0.063c2.407-0.514-0.968-6.945-1.481-10.549c-0.341-2.49,2.641-1.343,3.842-1.343
		c1.289,0.153,1.882-1.398,2.403-3.393c0.731-2.36,2.79-7.877,2.79-10.134c0.688-5.494,3.438-6.528,1.374-14.253
		c-1.716-4.812-6.178-11.34-8.069-17.007c-0.032-0.105-0.082-0.213-0.085-0.342c-0.147-4.475-2.64-6.015-3.982-9.643
		c-0.008-0.024-0.045-0.072-0.054-0.146c0-2.579,0.619-4.51-0.69-5.963c-1.163-0.798-2.181-3.999-2.618-5.233
		c-0.8-1.09-3.924-3.824-3.924-4.798c0.686-4.294-1.873-3.241-5.137-8.393c-3.951-4.297-9.102-4.812-13.394-1.377
		c-3.083,2.38-4.181,4.822-4.366,6.717c0.062,0.738-1.084,2.773-1.173,3.113c-0.25,3.364,2.098,5.379,0.663,11.424
		c-0.338,1.425,3.208,3.657,0.291,5.09c-3.321,1.662-1.514,0.923-5.421,1.91c-0.645,0.125-2.106,0.044-2.578,2.663
		c-0.214,2.186-1.374,4.934-0.815,8.502c0.129,2.272,0.175,13.865,0.175,15.027c0.039,4.34-1.006,4.951-1.955,6.904
		c-0.847,1.751-1.655,3.646-1.655,6.835c0,4.103-2.319,12.183-2.407,16.32c0,1.256-0.712,2.977-0.081,2.875
		c0.358-0.105,1.543-0.386,1.799-0.386c0.075,0.035,0.144,0.086,0.208,0.138c-0.144,1.343-0.301,2.793-0.368,3.431
		c-0.07,0.658-1,2.809-0.134,3.804c0.309,0.529,0.397,0.793,0.745,1.438c0.123,0.383,0.074,0.562,0.258,0.771
		c-1.698,2.78-4.106,6.941-4.345,9.558c-0.089,2.484-5.47,6.46-7.09,9.715c-1.203,3.082-2.765,5.031-2.286,10.054
		c0.213,2.194,2.046,7.196,6.492,7.654c3.803,0.648,14.37,0.807,14.649,1.657c0.336,2.555,0.726,4.982,1.018,6.998
		c0.731,3.864,3.343,15.383,2.708,18.379c-1.138,5.37-0.733,6.655-2.922,9.622c-0.715,0.817-1.576,1.834-1.77,2.81
		c-0.35,2.526-0.334,4.272,2.628,4.745c0.887,0,2.371,0,3.336-0.776c0.566-0.453,1.273-1.16,1.273-2.298
		c0.058-0.145,0.256-0.121,0.288,0.025c-0.044,1.116,0.225,0.914,0.515,0.944c0.375-0.009,0.648,0.087,0.688-0.242
		c0.135-0.63,0.099-1.42,0.156-2.289c0.086-1.201,0.443-2.919,1.948-5.666c1.03-2.664,0.729-4.083,0.166-6.788
		c-0.253-1.116-1.112-3.947-1.327-6.093c-0.858-6.445,0.258-13.312,0.516-17.866c0.299-7.857-1.206-10.521-1.031-14.468
		c-0.343-3.912,0.088-2.838,6.829-3.65c0.788,0,6.139-1.679,6.229-0.775c0.295,1.808,1.341,5.577,2.23,8.072
		c2.917,4.684,2.461,5.211,3.204,9.907c0.516,6.695,5.129,13.555,6.586,17.857c1.452,4.301,2.881,8.481,3.721,12.445
		c0.651,3.061,0.84,8.641,1.26,11.145c0.976,5.849,1.66,6.643,2.579,7.046c1.573,0.57,6.847-1.746,6.521-3.783
		c-0.254-1.61-1.104-3.036-2.402-6.521C64.302,171.209,65.028,171.313,63.082,163.879 M55.013,46.739
		c0.301,0.47,0.386,1.932,2.273,4.767c0.462,0.851,1.205,1.629,1.504,3.136c0.141,1.193,0.43,3.434,1.031,4.81
		c0.558,1.371,2.465,0.956,0.751,4.859c-0.519,1.72-2.896,4.324-1.441,7.117c0.068,0.308-0.547,0.932-1.215,1.851
		c-0.53-3.404-1.935-7.246-1.702-10.05C53.81,46.911,54.551,46.159,55.013,46.739 M16.889,98.239
		c0.065-0.06,0.146-0.169,0.169,0.059c0.031,0.146,0.063,0.304,0.102,0.485c-0.139-0.088-0.301-0.166-0.487-0.237
		C16.745,98.442,16.815,98.341,16.889,98.239 M19.268,110.218c-0.933,0.372-4.722-0.462-5.6-0.691
		c-2.966-0.681-2.087-1.199-1.497-2.61c1.215-2.807,2.317-5.025,3.715-7.198c0.383,0.093,0.728,0.178,0.961,0.318
		c0.167,0.055,0.385,0,0.556-0.13c0.607,2.763,1.661,7.183,2.239,9.464C19.657,109.592,19.792,110.151,19.268,110.218
		 M41.641,37.021c-0.008,1.979-0.574,3.852-0.574,5.207c0,4.42,0.737,8.917,0.128,13.301c-0.722,5.192,0.687,8.484,0.87,11.804
		c0.131,2.364-4.658,0.505-6.381,0.505c-1.877,0-5.123,1.051-4.674-0.573c0.678-2.449,0.507-4.65,0.865-8.226
		c0.524-5.253-1.218-6.344-1.182-10.638c0.044-5.149-1.005-4.868,0.576-7.921c0.783-1.512,1.986-6.679,1.815-7.996
		c-0.153-1.173-0.227-2.78-0.461-3.826c-0.182-0.819,0.511,1.275,2.041,1.837c0.918,0.336-0.188,1.16,1.15,1.228
		c0.526,0.023,0.334,8.223,0.323,8.67c-0.149,6.751,3.347-8.164,4.294-9.542c1.73-2.516-0.701-8.161,1.817-0.509
		C43.713,34.792,41.649,34.505,41.641,37.021"/>
</g>
</svg>
